<svg width="188" height="40" viewBox="0 0 188 40" fill="none" xmlns="http://www.w3.org/2000/svg">
<path d="M26.9833 3.33325H13.0167C6.95 3.33325 3.33333 6.94992 3.33333 13.0166V26.9666C3.33333 33.0499 6.95 36.6666 13.0167 36.6666H26.9667C33.0333 36.6666 36.65 33.0499 36.65 26.9833V13.0166C36.6667 6.94992 33.05 3.33325 26.9833 3.33325ZM19.1667 28.7499C19.1667 29.3499 18.5667 29.7499 18.0167 29.5166C16 28.6499 13.3667 27.8499 11.5333 27.6166L11.2167 27.5833C10.2 27.4499 9.36666 26.4999 9.36666 25.4666V12.6333C9.36666 11.3499 10.4 10.3999 11.6667 10.4999C13.75 10.6666 16.8333 11.6666 18.7667 12.7666C19.0333 12.9166 19.1667 13.1999 19.1667 13.4833V28.7499ZM30.6333 25.4499C30.6333 26.4833 29.8 27.4333 28.7833 27.5666L28.4333 27.5999C26.6167 27.8499 24 28.6333 21.9833 29.4833C21.4333 29.7166 20.8333 29.3166 20.8333 28.7166V13.4666C20.8333 13.1666 20.9833 12.8833 21.25 12.7333C23.1833 11.6499 26.2 10.6833 28.25 10.4999H28.3167C29.6 10.4999 30.6333 11.5333 30.6333 12.8166V25.4499Z" fill="#546FFF"/>
<path d="M58.688 33V12.52H52.352V9.16H68.672V12.52H62.432V33H58.688ZM73.461 33.384C72.2877 33.384 71.253 33.1813 70.357 32.776C69.4823 32.3493 68.7997 31.7733 68.309 31.048C67.8183 30.3013 67.573 29.4267 67.573 28.424C67.573 27.4853 67.7757 26.6427 68.181 25.896C68.6077 25.1493 69.2583 24.52 70.133 24.008C71.0077 23.496 72.1063 23.1333 73.429 22.92L79.445 21.928V24.776L74.133 25.704C73.173 25.8747 72.469 26.184 72.021 26.632C71.573 27.0587 71.349 27.6133 71.349 28.296C71.349 28.9573 71.5943 29.5013 72.085 29.928C72.597 30.3333 73.2477 30.536 74.037 30.536C75.0183 30.536 75.8717 30.3227 76.597 29.896C77.3437 29.4693 77.9197 28.904 78.325 28.2C78.7303 27.4747 78.933 26.6747 78.933 25.8V21.352C78.933 20.4987 78.613 19.8053 77.973 19.272C77.3543 18.7173 76.5223 18.44 75.477 18.44C74.517 18.44 73.6743 18.696 72.949 19.208C72.245 19.6987 71.7223 20.3387 71.381 21.128L68.373 19.624C68.693 18.7707 69.2157 18.024 69.941 17.384C70.6663 16.7227 71.509 16.2107 72.469 15.848C73.4503 15.4853 74.485 15.304 75.573 15.304C76.9383 15.304 78.1437 15.56 79.189 16.072C80.2557 16.584 81.077 17.2987 81.653 18.216C82.2503 19.112 82.549 20.1573 82.549 21.352V33H79.093V29.864L79.829 29.96C79.4237 30.664 78.901 31.272 78.261 31.784C77.6423 32.296 76.9277 32.6907 76.117 32.968C75.3277 33.2453 74.4423 33.384 73.461 33.384ZM92.217 33.384C90.4463 33.384 88.889 32.9467 87.545 32.072C86.2223 31.1973 85.2943 30.024 84.761 28.552L87.545 27.24C88.0143 28.2213 88.6543 29 89.465 29.576C90.297 30.152 91.2143 30.44 92.217 30.44C93.0703 30.44 93.7637 30.248 94.297 29.864C94.8303 29.48 95.097 28.9573 95.097 28.296C95.097 27.8693 94.9797 27.528 94.745 27.272C94.5103 26.9947 94.2117 26.7707 93.849 26.6C93.5077 26.4293 93.1557 26.3013 92.793 26.216L90.073 25.448C88.5797 25.0213 87.4597 24.3813 86.713 23.528C85.9877 22.6533 85.625 21.64 85.625 20.488C85.625 19.4427 85.8917 18.536 86.425 17.768C86.9583 16.9787 87.6943 16.3707 88.633 15.944C89.5717 15.5173 90.6277 15.304 91.801 15.304C93.3797 15.304 94.7877 15.6987 96.025 16.488C97.2623 17.256 98.137 18.3333 98.649 19.72L95.865 21.032C95.5237 20.2 94.9797 19.5387 94.233 19.048C93.5077 18.5573 92.6863 18.312 91.769 18.312C90.9797 18.312 90.3503 18.504 89.881 18.888C89.4117 19.2507 89.177 19.7307 89.177 20.328C89.177 20.7333 89.2837 21.0747 89.497 21.352C89.7103 21.608 89.9877 21.8213 90.329 21.992C90.6703 22.1413 91.0223 22.2693 91.385 22.376L94.201 23.208C95.6303 23.6133 96.729 24.2533 97.497 25.128C98.265 25.9813 98.649 27.0053 98.649 28.2C98.649 29.224 98.3717 30.1307 97.817 30.92C97.2837 31.688 96.537 32.296 95.577 32.744C94.617 33.1707 93.497 33.384 92.217 33.384ZM101.232 33V8.776H104.848V25L103.44 24.648L112.112 15.688H116.624L110.096 22.632L116.912 33H112.752L106.672 23.816L108.816 23.528L103.696 28.968L104.848 26.568V33H101.232ZM123.612 33.384C122.439 33.384 121.404 33.1813 120.508 32.776C119.634 32.3493 118.951 31.7733 118.46 31.048C117.97 30.3013 117.724 29.4267 117.724 28.424C117.724 27.4853 117.927 26.6427 118.332 25.896C118.759 25.1493 119.41 24.52 120.284 24.008C121.159 23.496 122.258 23.1333 123.58 22.92L129.596 21.928V24.776L124.284 25.704C123.324 25.8747 122.62 26.184 122.172 26.632C121.724 27.0587 121.5 27.6133 121.5 28.296C121.5 28.9573 121.746 29.5013 122.236 29.928C122.748 30.3333 123.399 30.536 124.188 30.536C125.17 30.536 126.023 30.3227 126.748 29.896C127.495 29.4693 128.071 28.904 128.476 28.2C128.882 27.4747 129.084 26.6747 129.084 25.8V21.352C129.084 20.4987 128.764 19.8053 128.124 19.272C127.506 18.7173 126.674 18.44 125.628 18.44C124.668 18.44 123.826 18.696 123.1 19.208C122.396 19.6987 121.874 20.3387 121.532 21.128L118.524 19.624C118.844 18.7707 119.367 18.024 120.092 17.384C120.818 16.7227 121.66 16.2107 122.62 15.848C123.602 15.4853 124.636 15.304 125.724 15.304C127.09 15.304 128.295 15.56 129.34 16.072C130.407 16.584 131.228 17.2987 131.804 18.216C132.402 19.112 132.7 20.1573 132.7 21.352V33H129.244V29.864L129.98 29.96C129.575 30.664 129.052 31.272 128.412 31.784C127.794 32.296 127.079 32.6907 126.268 32.968C125.479 33.2453 124.594 33.384 123.612 33.384Z" fill="#141522"/>
</svg>
