<svg width="188" height="44" viewBox="0 0 188 44" fill="none" xmlns="http://www.w3.org/2000/svg">
<rect width="188" height="44" rx="10" fill="#F5F5F7"/>
<path d="M42 26.7399V14.6699C42 13.4699 41.02 12.5799 39.83 12.6799H39.77C37.67 12.8599 34.48 13.9299 32.7 15.0499L32.53 15.1599C32.24 15.3399 31.76 15.3399 31.47 15.1599L31.22 15.0099C29.44 13.8999 26.26 12.8399 24.16 12.6699C22.97 12.5699 22 13.4699 22 14.6599V26.7399C22 27.6999 22.78 28.5999 23.74 28.7199L24.03 28.7599C26.2 29.0499 29.55 30.1499 31.47 31.1999L31.51 31.2199C31.78 31.3699 32.21 31.3699 32.47 31.2199C34.39 30.1599 37.75 29.0499 39.93 28.7599L40.26 28.7199C41.22 28.5999 42 27.6999 42 26.7399Z" stroke="#141522" stroke-width="1.5" stroke-linecap="round" stroke-linejoin="round"/>
<path d="M32 15.49V30.49" stroke="#141522" stroke-width="1.5" stroke-linecap="round" stroke-linejoin="round"/>
<path d="M27.75 18.49H25.5" stroke="#141522" stroke-width="1.5" stroke-linecap="round" stroke-linejoin="round"/>
<path d="M28.5 21.49H25.5" stroke="#141522" stroke-width="1.5" stroke-linecap="round" stroke-linejoin="round"/>
<path d="M58.926 28V19.04H56.154V17.57H63.294V19.04H60.564V28H58.926ZM65.5292 28.168C65.0159 28.168 64.5632 28.0793 64.1712 27.902C63.7885 27.7153 63.4899 27.4633 63.2752 27.146C63.0605 26.8193 62.9532 26.4367 62.9532 25.998C62.9532 25.5873 63.0419 25.2187 63.2192 24.892C63.4059 24.5653 63.6905 24.29 64.0732 24.066C64.4559 23.842 64.9365 23.6833 65.5152 23.59L68.1472 23.156V24.402L65.8232 24.808C65.4032 24.8827 65.0952 25.018 64.8992 25.214C64.7032 25.4007 64.6052 25.6433 64.6052 25.942C64.6052 26.2313 64.7125 26.4693 64.9272 26.656C65.1512 26.8333 65.4359 26.922 65.7812 26.922C66.2105 26.922 66.5839 26.8287 66.9012 26.642C67.2279 26.4553 67.4799 26.208 67.6572 25.9C67.8345 25.5827 67.9232 25.2327 67.9232 24.85V22.904C67.9232 22.5307 67.7832 22.2273 67.5032 21.994C67.2325 21.7513 66.8685 21.63 66.4112 21.63C65.9912 21.63 65.6225 21.742 65.3052 21.966C64.9972 22.1807 64.7685 22.4607 64.6192 22.806L63.3032 22.148C63.4432 21.7747 63.6719 21.448 63.9892 21.168C64.3065 20.8787 64.6752 20.6547 65.0952 20.496C65.5245 20.3373 65.9772 20.258 66.4532 20.258C67.0505 20.258 67.5779 20.37 68.0352 20.594C68.5019 20.818 68.8612 21.1307 69.1132 21.532C69.3745 21.924 69.5052 22.3813 69.5052 22.904V28H67.9932V26.628L68.3152 26.67C68.1379 26.978 67.9092 27.244 67.6292 27.468C67.3585 27.692 67.0459 27.8647 66.6912 27.986C66.3459 28.1073 65.9585 28.168 65.5292 28.168ZM73.8749 28.168C73.1003 28.168 72.4189 27.9767 71.8309 27.594C71.2523 27.2113 70.8463 26.698 70.6129 26.054L71.8309 25.48C72.0363 25.9093 72.3163 26.25 72.6709 26.502C73.0349 26.754 73.4363 26.88 73.8749 26.88C74.2483 26.88 74.5516 26.796 74.7849 26.628C75.0183 26.46 75.1349 26.2313 75.1349 25.942C75.1349 25.7553 75.0836 25.606 74.9809 25.494C74.8783 25.3727 74.7476 25.2747 74.5889 25.2C74.4396 25.1253 74.2856 25.0693 74.1269 25.032L72.9369 24.696C72.2836 24.5093 71.7936 24.2293 71.4669 23.856C71.1496 23.4733 70.9909 23.03 70.9909 22.526C70.9909 22.0687 71.1076 21.672 71.3409 21.336C71.5743 20.9907 71.8963 20.7247 72.3069 20.538C72.7176 20.3513 73.1796 20.258 73.6929 20.258C74.3836 20.258 74.9996 20.4307 75.5409 20.776C76.0823 21.112 76.4649 21.5833 76.6889 22.19L75.4709 22.764C75.3216 22.4 75.0836 22.1107 74.7569 21.896C74.4396 21.6813 74.0803 21.574 73.6789 21.574C73.3336 21.574 73.0583 21.658 72.8529 21.826C72.6476 21.9847 72.5449 22.1947 72.5449 22.456C72.5449 22.6333 72.5916 22.7827 72.6849 22.904C72.7783 23.016 72.8996 23.1093 73.0489 23.184C73.1983 23.2493 73.3523 23.3053 73.5109 23.352L74.7429 23.716C75.3683 23.8933 75.8489 24.1733 76.1849 24.556C76.5209 24.9293 76.6889 25.3773 76.6889 25.9C76.6889 26.348 76.5676 26.7447 76.3249 27.09C76.0916 27.426 75.7649 27.692 75.3449 27.888C74.9249 28.0747 74.4349 28.168 73.8749 28.168ZM77.959 28V17.402H79.541V24.5L78.925 24.346L82.719 20.426H84.693L81.837 23.464L84.819 28H82.999L80.339 23.982L81.277 23.856L79.037 26.236L79.541 25.186V28H77.959Z" fill="#141522"/>
</svg>
